<mxfile host="app.diagrams.net" agent="Mozilla/5.0 (Windows NT 10.0; Win64; x64) AppleWebKit/537.36 (KHTML, like Gecko) Chrome/134.0.0.0 Safari/537.36 Edg/134.0.0.0" version="26.1.0">
  <diagram name="第 1 页" id="mMvDS8Gl5DTP-dUkQIf1">
    <mxGraphModel dx="1426" dy="747" grid="1" gridSize="10" guides="1" tooltips="1" connect="1" arrows="1" fold="1" page="1" pageScale="1" pageWidth="827" pageHeight="1169" math="0" shadow="0">
      <root>
        <mxCell id="0" />
        <mxCell id="1" parent="0" />
        <mxCell id="QluS-aAjsIgC2w83DEUZ-6" value="Pool" style="swimlane;childLayout=stackLayout;resizeParent=1;resizeParentMax=0;startSize=20;horizontal=0;horizontalStack=1;" vertex="1" parent="1">
          <mxGeometry x="70" y="70" width="470" height="600" as="geometry" />
        </mxCell>
        <mxCell id="QluS-aAjsIgC2w83DEUZ-7" value="SSO Server" style="swimlane;startSize=20;" vertex="1" parent="QluS-aAjsIgC2w83DEUZ-6">
          <mxGeometry x="20" width="200" height="600" as="geometry" />
        </mxCell>
        <mxCell id="QluS-aAjsIgC2w83DEUZ-13" value="登录页" style="rounded=0;whiteSpace=wrap;html=1;" vertex="1" parent="QluS-aAjsIgC2w83DEUZ-7">
          <mxGeometry x="20" y="90" width="80" height="60" as="geometry" />
        </mxCell>
        <mxCell id="QluS-aAjsIgC2w83DEUZ-19" value="store" style="strokeWidth=2;html=1;shape=mxgraph.flowchart.database;whiteSpace=wrap;" vertex="1" parent="QluS-aAjsIgC2w83DEUZ-7">
          <mxGeometry x="50" y="130" width="60" height="50" as="geometry" />
        </mxCell>
        <mxCell id="QluS-aAjsIgC2w83DEUZ-8" value="MCP" style="swimlane;startSize=20;" vertex="1" parent="QluS-aAjsIgC2w83DEUZ-6">
          <mxGeometry x="220" width="130" height="600" as="geometry" />
        </mxCell>
        <mxCell id="QluS-aAjsIgC2w83DEUZ-10" value="登录页" style="rounded=0;whiteSpace=wrap;html=1;" vertex="1" parent="QluS-aAjsIgC2w83DEUZ-8">
          <mxGeometry x="20" y="50" width="90" height="30" as="geometry" />
        </mxCell>
        <mxCell id="QluS-aAjsIgC2w83DEUZ-12" value="首页（父）" style="rounded=0;whiteSpace=wrap;html=1;" vertex="1" parent="QluS-aAjsIgC2w83DEUZ-8">
          <mxGeometry x="20" y="180" width="90" height="30" as="geometry" />
        </mxCell>
        <mxCell id="QluS-aAjsIgC2w83DEUZ-9" value="具体页面" style="swimlane;startSize=20;" vertex="1" parent="QluS-aAjsIgC2w83DEUZ-6">
          <mxGeometry x="350" width="120" height="600" as="geometry" />
        </mxCell>
        <mxCell id="QluS-aAjsIgC2w83DEUZ-15" style="edgeStyle=orthogonalEdgeStyle;rounded=0;orthogonalLoop=1;jettySize=auto;html=1;entryX=0.5;entryY=0;entryDx=0;entryDy=0;" edge="1" parent="QluS-aAjsIgC2w83DEUZ-6" source="QluS-aAjsIgC2w83DEUZ-10" target="QluS-aAjsIgC2w83DEUZ-13">
          <mxGeometry relative="1" as="geometry" />
        </mxCell>
        <mxCell id="QluS-aAjsIgC2w83DEUZ-16" value="静默登录" style="edgeLabel;html=1;align=center;verticalAlign=middle;resizable=0;points=[];" vertex="1" connectable="0" parent="QluS-aAjsIgC2w83DEUZ-15">
          <mxGeometry x="-0.2" relative="1" as="geometry">
            <mxPoint as="offset" />
          </mxGeometry>
        </mxCell>
        <mxCell id="QluS-aAjsIgC2w83DEUZ-17" style="edgeStyle=orthogonalEdgeStyle;rounded=0;orthogonalLoop=1;jettySize=auto;html=1;entryX=0.5;entryY=0;entryDx=0;entryDy=0;" edge="1" parent="QluS-aAjsIgC2w83DEUZ-6" source="QluS-aAjsIgC2w83DEUZ-13" target="QluS-aAjsIgC2w83DEUZ-12">
          <mxGeometry relative="1" as="geometry" />
        </mxCell>
        <mxCell id="QluS-aAjsIgC2w83DEUZ-18" value="跳转" style="edgeLabel;html=1;align=center;verticalAlign=middle;resizable=0;points=[];" vertex="1" connectable="0" parent="QluS-aAjsIgC2w83DEUZ-17">
          <mxGeometry x="-0.12" y="-2" relative="1" as="geometry">
            <mxPoint as="offset" />
          </mxGeometry>
        </mxCell>
      </root>
    </mxGraphModel>
  </diagram>
</mxfile>
